<mxfile host="app.diagrams.net" modified="2023-12-10T11:46:35.890Z" agent="Mozilla/5.0 (Windows NT 10.0; Win64; x64) AppleWebKit/537.36 (KHTML, like Gecko) Chrome/119.0.0.0 Safari/537.36" etag="lCEdiD8AOaqoUp6tMvJI" version="22.1.7" type="device">
  <diagram name="1 oldal" id="Xo8cg42QXxXwKzQHQ3-V">
    <mxGraphModel dx="1222" dy="714" grid="1" gridSize="10" guides="1" tooltips="1" connect="1" arrows="1" fold="1" page="1" pageScale="1" pageWidth="827" pageHeight="1169" math="0" shadow="0">
      <root>
        <mxCell id="0" />
        <mxCell id="1" parent="0" />
        <mxCell id="Nr5VKe21RkpAj2_ccBrV-18" style="edgeStyle=orthogonalEdgeStyle;rounded=0;orthogonalLoop=1;jettySize=auto;html=1;exitX=0.5;exitY=0;exitDx=0;exitDy=0;entryX=0.5;entryY=1;entryDx=0;entryDy=0;endArrow=none;endFill=0;" edge="1" parent="1" source="Nr5VKe21RkpAj2_ccBrV-1" target="Nr5VKe21RkpAj2_ccBrV-17">
          <mxGeometry relative="1" as="geometry" />
        </mxCell>
        <mxCell id="Nr5VKe21RkpAj2_ccBrV-1" value="ora" style="ellipse;shape=doubleEllipse;whiteSpace=wrap;html=1;" vertex="1" parent="1">
          <mxGeometry x="480" y="180" width="120" height="80" as="geometry" />
        </mxCell>
        <mxCell id="Nr5VKe21RkpAj2_ccBrV-9" style="rounded=0;orthogonalLoop=1;jettySize=auto;html=1;exitX=0.5;exitY=0;exitDx=0;exitDy=0;entryX=0.5;entryY=1;entryDx=0;entryDy=0;endArrow=none;endFill=0;" edge="1" parent="1" source="Nr5VKe21RkpAj2_ccBrV-2" target="Nr5VKe21RkpAj2_ccBrV-1">
          <mxGeometry relative="1" as="geometry" />
        </mxCell>
        <mxCell id="Nr5VKe21RkpAj2_ccBrV-2" value="&lt;u&gt;kod&lt;/u&gt;" style="rhombus;whiteSpace=wrap;html=1;" vertex="1" parent="1">
          <mxGeometry x="40" y="440" width="80" height="80" as="geometry" />
        </mxCell>
        <mxCell id="Nr5VKe21RkpAj2_ccBrV-10" style="rounded=0;orthogonalLoop=1;jettySize=auto;html=1;exitX=0.5;exitY=0;exitDx=0;exitDy=0;entryX=0.5;entryY=1;entryDx=0;entryDy=0;endArrow=none;endFill=0;" edge="1" parent="1" source="Nr5VKe21RkpAj2_ccBrV-3" target="Nr5VKe21RkpAj2_ccBrV-1">
          <mxGeometry relative="1" as="geometry" />
        </mxCell>
        <mxCell id="Nr5VKe21RkpAj2_ccBrV-3" value="tipus" style="ellipse;whiteSpace=wrap;html=1;" vertex="1" parent="1">
          <mxGeometry x="160" y="440" width="120" height="80" as="geometry" />
        </mxCell>
        <mxCell id="Nr5VKe21RkpAj2_ccBrV-11" style="rounded=0;orthogonalLoop=1;jettySize=auto;html=1;exitX=0.5;exitY=0;exitDx=0;exitDy=0;entryX=0.5;entryY=1;entryDx=0;entryDy=0;endArrow=none;endFill=0;" edge="1" parent="1" source="Nr5VKe21RkpAj2_ccBrV-4" target="Nr5VKe21RkpAj2_ccBrV-1">
          <mxGeometry relative="1" as="geometry" />
        </mxCell>
        <mxCell id="Nr5VKe21RkpAj2_ccBrV-4" value="kurzusnev" style="ellipse;whiteSpace=wrap;html=1;" vertex="1" parent="1">
          <mxGeometry x="320" y="440" width="120" height="80" as="geometry" />
        </mxCell>
        <mxCell id="Nr5VKe21RkpAj2_ccBrV-12" style="rounded=0;orthogonalLoop=1;jettySize=auto;html=1;exitX=0.5;exitY=0;exitDx=0;exitDy=0;entryX=0.5;entryY=1;entryDx=0;entryDy=0;endArrow=none;endFill=0;" edge="1" parent="1" source="Nr5VKe21RkpAj2_ccBrV-5" target="Nr5VKe21RkpAj2_ccBrV-1">
          <mxGeometry relative="1" as="geometry" />
        </mxCell>
        <mxCell id="Nr5VKe21RkpAj2_ccBrV-5" value="idopont" style="ellipse;whiteSpace=wrap;html=1;" vertex="1" parent="1">
          <mxGeometry x="480" y="440" width="120" height="80" as="geometry" />
        </mxCell>
        <mxCell id="Nr5VKe21RkpAj2_ccBrV-13" style="rounded=0;orthogonalLoop=1;jettySize=auto;html=1;exitX=0.5;exitY=0;exitDx=0;exitDy=0;entryX=0.5;entryY=1;entryDx=0;entryDy=0;endArrow=none;endFill=0;" edge="1" parent="1" source="Nr5VKe21RkpAj2_ccBrV-6" target="Nr5VKe21RkpAj2_ccBrV-1">
          <mxGeometry relative="1" as="geometry" />
        </mxCell>
        <mxCell id="Nr5VKe21RkpAj2_ccBrV-6" value="oktato" style="ellipse;whiteSpace=wrap;html=1;" vertex="1" parent="1">
          <mxGeometry x="640" y="440" width="120" height="80" as="geometry" />
        </mxCell>
        <mxCell id="Nr5VKe21RkpAj2_ccBrV-14" style="rounded=0;orthogonalLoop=1;jettySize=auto;html=1;exitX=0.5;exitY=0;exitDx=0;exitDy=0;entryX=0.5;entryY=1;entryDx=0;entryDy=0;endArrow=none;endFill=0;" edge="1" parent="1" source="Nr5VKe21RkpAj2_ccBrV-7" target="Nr5VKe21RkpAj2_ccBrV-1">
          <mxGeometry relative="1" as="geometry">
            <mxPoint x="740" y="300" as="targetPoint" />
          </mxGeometry>
        </mxCell>
        <mxCell id="Nr5VKe21RkpAj2_ccBrV-7" value="helyszin" style="ellipse;whiteSpace=wrap;html=1;" vertex="1" parent="1">
          <mxGeometry x="800" y="440" width="120" height="80" as="geometry" />
        </mxCell>
        <mxCell id="Nr5VKe21RkpAj2_ccBrV-15" style="rounded=0;orthogonalLoop=1;jettySize=auto;html=1;exitX=0.5;exitY=0;exitDx=0;exitDy=0;entryX=0.5;entryY=1;entryDx=0;entryDy=0;endArrow=none;endFill=0;" edge="1" parent="1" source="Nr5VKe21RkpAj2_ccBrV-8" target="Nr5VKe21RkpAj2_ccBrV-1">
          <mxGeometry relative="1" as="geometry" />
        </mxCell>
        <mxCell id="Nr5VKe21RkpAj2_ccBrV-8" value="szak" style="ellipse;whiteSpace=wrap;html=1;" vertex="1" parent="1">
          <mxGeometry x="960" y="440" width="120" height="80" as="geometry" />
        </mxCell>
        <mxCell id="Nr5VKe21RkpAj2_ccBrV-17" value="MPW46D_orarend" style="ellipse;whiteSpace=wrap;html=1;" vertex="1" parent="1">
          <mxGeometry x="480" y="10" width="120" height="80" as="geometry" />
        </mxCell>
        <mxCell id="Nr5VKe21RkpAj2_ccBrV-23" style="rounded=0;orthogonalLoop=1;jettySize=auto;html=1;exitX=0.5;exitY=0;exitDx=0;exitDy=0;entryX=0.5;entryY=1;entryDx=0;entryDy=0;endArrow=none;endFill=0;" edge="1" parent="1" source="Nr5VKe21RkpAj2_ccBrV-19" target="Nr5VKe21RkpAj2_ccBrV-5">
          <mxGeometry relative="1" as="geometry" />
        </mxCell>
        <mxCell id="Nr5VKe21RkpAj2_ccBrV-19" value="kezdopont" style="ellipse;whiteSpace=wrap;html=1;" vertex="1" parent="1">
          <mxGeometry x="480" y="640" width="120" height="80" as="geometry" />
        </mxCell>
        <mxCell id="Nr5VKe21RkpAj2_ccBrV-22" style="rounded=0;orthogonalLoop=1;jettySize=auto;html=1;exitX=0.5;exitY=0;exitDx=0;exitDy=0;entryX=0.5;entryY=1;entryDx=0;entryDy=0;endArrow=none;endFill=0;" edge="1" parent="1" source="Nr5VKe21RkpAj2_ccBrV-20" target="Nr5VKe21RkpAj2_ccBrV-5">
          <mxGeometry relative="1" as="geometry" />
        </mxCell>
        <mxCell id="Nr5VKe21RkpAj2_ccBrV-20" value="nap" style="ellipse;whiteSpace=wrap;html=1;" vertex="1" parent="1">
          <mxGeometry x="320" y="640" width="120" height="80" as="geometry" />
        </mxCell>
        <mxCell id="Nr5VKe21RkpAj2_ccBrV-24" style="rounded=0;orthogonalLoop=1;jettySize=auto;html=1;exitX=0.5;exitY=0;exitDx=0;exitDy=0;entryX=0.5;entryY=1;entryDx=0;entryDy=0;endArrow=none;endFill=0;" edge="1" parent="1" source="Nr5VKe21RkpAj2_ccBrV-21" target="Nr5VKe21RkpAj2_ccBrV-5">
          <mxGeometry relative="1" as="geometry" />
        </mxCell>
        <mxCell id="Nr5VKe21RkpAj2_ccBrV-21" value="vegpont" style="ellipse;whiteSpace=wrap;html=1;" vertex="1" parent="1">
          <mxGeometry x="640" y="640" width="120" height="80" as="geometry" />
        </mxCell>
      </root>
    </mxGraphModel>
  </diagram>
</mxfile>
